# xmcd
#
# Track frame offsets: 
#        182
#        12057
#        20720
#        32870
#        44432
#        53745
#        65057
#        75720
#        90245
#        102707
#        116070
#        126532
#        138470
#        150320
#        160657
#        171445
#
# Disc length: 2440 seconds
#
# Revision: 2
# Processed by: cddbd v1.5.2PL0 Copyright (c) Steve Scherf et al.
# Submitted via: ExactAudioCopyFreeDBPlugin 1.0
#
DISCID=d7098610
DTITLE=Various Artist - All Time Country Hits Vol 2
DYEAR=1900
DGENRE=Country
TTITLE0=Jim Reeves - Welcome To My World
TTITLE1=Johnny Cash - Forgot To Rememeber
TTITLE2=Carl Perkins - That's Right
TTITLE3=Don Gibson - Oh Lonesome Me
TTITLE4=Bob Luman - Let's Think About Living
TTITLE5=Johnny Horton - The Battle Of New Orleans
TTITLE6=Jerry Wallace - Primrose Lane
TTITLE7=Marty Robins - Cool Water
TTITLE8=Skeeter Davis - Your Cheatin Heart
TTITLE9=Bobby Helms - My Special Angel
TTITLE10=Jerry Lee Lewis - Lewis-Bonnie B
TTITLE11=Ronnie Hawkins - Cold Cold Heart
TTITLE12=Patsy Cline - Today, Tomorrow And Forever
TTITLE13=Conway Twitty - Lonely Blue Boy
TTITLE14=Floyd Cramer - San Antonio Rose
TTITLE15=Slim Whitman - Secret Love
EXTD=
EXTT0=
EXTT1=
EXTT2=
EXTT3=
EXTT4=
EXTT5=
EXTT6=
EXTT7=
EXTT8=
EXTT9=
EXTT10=
EXTT11=
EXTT12=
EXTT13=
EXTT14=
EXTT15=
PLAYORDER=
